<svg width="14" height="14" viewBox="0 0 14 14" fill="none" xmlns="http://www.w3.org/2000/svg">
<path d="M1.57507 7C1.57507 5.60761 2.1282 4.27226 3.11276 3.28769C4.09733 2.30312 5.43269 1.75 6.82507 1.75C8.21746 1.75 9.55282 2.30312 10.5374 3.28769C11.522 4.27226 12.0751 5.60761 12.0751 7V10.3403C12.0751 10.8968 12.0751 11.1737 11.9924 11.3962C11.9266 11.5725 11.8238 11.7326 11.6907 11.8656C11.5577 11.9987 11.3976 12.1016 11.2213 12.1673C10.9988 12.25 10.7212 12.25 10.1654 12.25H6.82507C5.43269 12.25 4.09733 11.6969 3.11276 10.7123C2.1282 9.72774 1.57507 8.39239 1.57507 7Z" stroke="#0066FF" stroke-width="1.2"/>
<path d="M4.85632 6.34375H8.79382M6.82507 8.96875H8.79382" stroke="#0066FF" stroke-width="1.2" stroke-linecap="round" stroke-linejoin="round"/>
</svg>
