<svg width="12" height="13" viewBox="0 0 12 13" fill="none" xmlns="http://www.w3.org/2000/svg">
<path d="M9.95253 2.28694C10.148 2.10086 10.4081 1.99799 10.6779 2.00003C10.9478 2.00207 11.2063 2.10887 11.3989 2.29788C11.5915 2.4869 11.7032 2.74335 11.7103 3.01312C11.7174 3.28289 11.6195 3.54488 11.4371 3.74381L5.90104 10.6674C5.80584 10.7699 5.69095 10.8522 5.56323 10.9093C5.43551 10.9665 5.29758 10.9972 5.15769 10.9998C5.0178 11.0024 4.87883 10.9768 4.74908 10.9244C4.61933 10.8721 4.50147 10.7941 4.40254 10.6952L0.731231 7.02385C0.628991 6.92858 0.546987 6.81369 0.490111 6.68605C0.433235 6.5584 0.402652 6.4206 0.400186 6.28087C0.397721 6.14115 0.423424 6.00236 0.475762 5.87278C0.5281 5.74321 0.606 5.6255 0.704816 5.52669C0.803631 5.42787 0.921338 5.34997 1.05091 5.29763C1.18049 5.2453 1.31928 5.21959 1.459 5.22206C1.59873 5.22452 1.73653 5.25511 1.86417 5.31198C1.99182 5.36886 2.10671 5.45086 2.20198 5.5531L5.10739 8.45713L9.92616 2.31746L9.95253 2.28694Z" fill="white"/>
</svg>
