<svg width="12" height="13" viewBox="0 0 12 13" fill="none" xmlns="http://www.w3.org/2000/svg">
<path d="M4 2.5V8.5C4 8.76522 4.10536 9.01957 4.29289 9.20711C4.48043 9.39464 4.73478 9.5 5 9.5H9C9.26522 9.5 9.51957 9.39464 9.70711 9.20711C9.89464 9.01957 10 8.76522 10 8.5V4.121C9.99998 3.98778 9.97335 3.85591 9.92166 3.73312C9.86997 3.61034 9.79427 3.49912 9.699 3.406L8.0415 1.785C7.85468 1.60233 7.60379 1.50003 7.3425 1.5H5C4.73478 1.5 4.48043 1.60536 4.29289 1.79289C4.10536 1.98043 4 2.23478 4 2.5Z" stroke="#0066FF" stroke-linecap="round" stroke-linejoin="round"/>
<path d="M8 9.5V10.5C8 10.7652 7.89464 11.0196 7.70711 11.2071C7.51957 11.3946 7.26522 11.5 7 11.5H3C2.73478 11.5 2.48043 11.3946 2.29289 11.2071C2.10536 11.0196 2 10.7652 2 10.5V5C2 4.73478 2.10536 4.48043 2.29289 4.29289C2.48043 4.10536 2.73478 4 3 4H4" stroke="#0066FF" stroke-linecap="round" stroke-linejoin="round"/>
</svg>
