<svg width="14" height="14" viewBox="0 0 14 14" fill="none" xmlns="http://www.w3.org/2000/svg">
<path d="M6.84523 4.95913C6.66634 5.28891 6.64689 5.66302 6.75812 5.99202C6.19704 5.85811 5.61129 5.86748 5.05478 6.01924C4.95698 5.38259 5.07006 4.73142 5.37678 4.16502C5.75183 3.47423 6.38551 2.96037 7.13888 2.73612C7.89225 2.51188 8.7038 2.59555 9.39556 2.9688C10.087 3.34321 10.6017 3.97649 10.827 4.72983C11.0523 5.48316 10.9696 6.29507 10.5972 6.98758C10.3761 7.39917 10.0599 7.75197 9.67478 8.01658C9.67632 7.05257 9.52403 6.09449 9.22367 5.17847C9.14552 4.93656 8.99809 4.7229 8.79967 4.56398C8.60125 4.40505 8.36055 4.30785 8.10742 4.28442C7.85428 4.26098 7.59983 4.31235 7.3756 4.43214C7.15138 4.55194 6.96724 4.7349 6.84601 4.95836L6.84523 4.95913ZM6.35912 8.5898C6.57067 8.70413 6.80012 8.75313 7.02334 8.74458C6.97045 9.05569 6.87945 9.36369 6.73556 9.64836L5.00967 12.9026C4.90437 13.0973 4.72602 13.2422 4.51386 13.3055C4.30171 13.3687 4.07312 13.345 3.87839 13.2397C3.68367 13.1344 3.53875 12.9561 3.47552 12.7439C3.41228 12.5318 3.43592 12.3032 3.54123 12.1085L5.25001 8.88613C5.48101 8.5128 5.96789 8.37824 6.35912 8.5898ZM6.57923 8.1838C6.42924 8.10254 6.26471 8.05161 6.09504 8.03394C5.92537 8.01626 5.75388 8.03219 5.59036 8.08079C5.42685 8.1294 5.2745 8.20974 5.14204 8.31723C5.00957 8.42472 4.89958 8.55724 4.81834 8.70724L3.55134 11.0491C3.22729 10.5978 3.03659 10.0645 3.00097 9.51002C2.96536 8.95554 3.08626 8.40222 3.34989 7.91313C3.68393 7.29889 4.22379 6.82205 4.87458 6.56643C5.52538 6.3108 6.24545 6.29276 6.90823 6.51547C7.00934 6.94402 7.11823 7.59658 7.077 8.27869C6.90526 8.29926 6.73136 8.26611 6.57923 8.1838ZM8.77256 5.2928V5.29436C8.79434 5.35113 9.06812 6.11647 9.17389 7.16724C9.27967 8.2188 9.21667 9.54725 8.57345 10.7372L8.56256 10.7575L8.55167 10.7769C8.28269 11.2546 7.88668 11.6484 7.40755 11.9147C6.92842 12.1811 6.38489 12.3095 5.83723 12.2858L7.10501 9.94391C7.57245 9.07824 7.59734 8.06169 7.50789 7.26369C7.45557 6.78701 7.35392 6.31705 7.20456 5.86136C7.16702 5.75851 7.15015 5.64927 7.1549 5.5399C7.15965 5.43052 7.18593 5.32316 7.23225 5.22396C7.27856 5.12476 7.34399 5.03567 7.42479 4.9618C7.50559 4.88793 7.60017 4.83072 7.70312 4.79347C7.91116 4.71807 8.14062 4.72831 8.34112 4.82193C8.54163 4.91554 8.69679 5.08489 8.77256 5.2928ZM10.8967 1.89158V1.89313L10.3017 3.04969C10.0942 2.86054 9.86436 2.69755 9.61723 2.56436C9.36955 2.42984 9.10623 2.32639 8.83323 2.25636L9.42901 1.09747C9.53431 0.902842 9.71262 0.758021 9.9247 0.694863C10.1368 0.631705 10.3653 0.655383 10.5599 0.760689C10.7545 0.865995 10.8993 1.0443 10.9625 1.25638C11.0257 1.46847 11.002 1.69695 10.8967 1.89158Z" fill="#0066FF"/>
<path d="M6.84518 4.95913C6.66629 5.28891 6.64685 5.66302 6.75807 5.99202C6.19699 5.85811 5.61125 5.86747 5.05474 6.01924C4.95693 5.38259 5.07001 4.73142 5.37674 4.16502C5.75178 3.47423 6.38547 2.96037 7.13884 2.73612C7.8922 2.51187 8.70375 2.59555 9.39552 2.9688C10.0869 3.34321 10.6017 3.97649 10.827 4.72982C11.0522 5.48316 10.9696 6.29507 10.5972 6.98758C10.3761 7.39917 10.0598 7.75197 9.67474 8.01658C9.67627 7.05257 9.52399 6.09449 9.22363 5.17846C9.14547 4.93656 8.99805 4.7229 8.79963 4.56397C8.60121 4.40505 8.36051 4.30785 8.10737 4.28441C7.85423 4.26098 7.59978 4.31235 7.37556 4.43214C7.15133 4.55194 6.96719 4.7349 6.84596 4.95835L6.84518 4.95913ZM6.84518 4.95913L6.91285 4.99569M5.00963 12.9026L6.73629 9.64835C6.8794 9.36369 6.9704 9.05569 7.02407 8.74457C6.79246 8.75335 6.56276 8.69962 6.35907 8.58902C6.171 8.48822 5.95158 8.46292 5.74551 8.51827C5.53944 8.57361 5.36222 8.70545 5.24996 8.88691L3.54118 12.1085C3.43598 12.3032 3.41244 12.5317 3.47574 12.7438C3.53905 12.9559 3.68401 13.1341 3.87874 13.2394C4.07347 13.3446 4.30201 13.3681 4.51409 13.3048C4.72617 13.2415 4.90442 13.0965 5.00963 12.9018V12.9026ZM8.55163 10.7769L8.56252 10.7575L8.5734 10.7372C9.21663 9.54724 9.27963 8.2188 9.17385 7.16724C9.11273 6.52956 8.97806 5.90109 8.77252 5.29435V5.2928C8.69675 5.08489 8.54158 4.91554 8.34108 4.82192C8.14057 4.72831 7.91112 4.71807 7.70307 4.79346C7.6002 4.8308 7.5057 4.88806 7.42498 4.96196C7.34426 5.03587 7.27892 5.12497 7.23268 5.22416C7.18644 5.32335 7.16022 5.43069 7.15552 5.54003C7.15082 5.64937 7.16774 5.75856 7.20529 5.86135C7.22085 5.90491 7.41996 6.48513 7.50785 7.26369C7.59729 8.06091 7.5724 9.07824 7.10496 9.94313L5.83718 12.2858C6.38485 12.3095 6.92838 12.1811 7.40751 11.9147C7.88664 11.6484 8.28265 11.2546 8.55163 10.7769ZM6.57996 8.1838C6.42997 8.10253 6.26544 8.05161 6.09577 8.03393C5.9261 8.01626 5.75461 8.03218 5.5911 8.08079C5.42758 8.1294 5.27524 8.20974 5.14277 8.31723C5.01031 8.42471 4.90031 8.55724 4.81907 8.70724L3.55207 11.0491C3.22803 10.5978 3.03732 10.0645 3.0017 9.51001C2.96609 8.95554 3.08699 8.40222 3.35063 7.91313C3.68466 7.29889 4.22452 6.82205 4.87532 6.56642C5.52611 6.3108 6.24618 6.29276 6.90896 6.51546C7.01007 6.94402 7.11896 7.59658 7.07774 8.27869C6.90599 8.29926 6.73209 8.26611 6.57996 8.1838ZM10.8974 1.89158V1.89313L10.3024 3.04969C10.095 2.86054 9.86509 2.69755 9.61796 2.56435C9.37029 2.42984 9.10697 2.32639 8.83396 2.25635L9.42974 1.09747C9.48188 1.0011 9.55249 0.915942 9.63754 0.846864C9.7226 0.777785 9.82042 0.726135 9.92543 0.694862C10.0304 0.663589 10.1406 0.653306 10.2496 0.664601C10.3586 0.675895 10.4643 0.708546 10.5606 0.760688C10.657 0.81283 10.7422 0.883442 10.8112 0.968494C10.8803 1.05355 10.932 1.15137 10.9632 1.25638C10.9945 1.3614 11.0048 1.47154 10.9935 1.58053C10.9822 1.68951 10.9495 1.79521 10.8974 1.89158Z" stroke="white" stroke-width="0.2"/>
</svg>
