<svg width="26" height="27" viewBox="0 0 26 27" fill="none" xmlns="http://www.w3.org/2000/svg">
<path d="M12.7127 9.70977C12.3804 10.3222 12.3443 11.017 12.5509 11.628C11.5089 11.3793 10.4211 11.3967 9.38756 11.6786C9.20592 10.4962 9.41593 9.28689 9.98556 8.235C10.6821 6.9521 11.8589 5.99778 13.258 5.58133C14.6571 5.16487 16.1643 5.32027 17.449 6.01344C18.7331 6.70877 19.6891 7.88487 20.1074 9.28392C20.5257 10.683 20.3723 12.1908 19.6807 13.4769C19.27 14.2413 18.6827 14.8965 17.9676 15.3879C17.9704 13.5976 17.6876 11.8183 17.1298 10.1171C16.9846 9.66785 16.7109 9.27106 16.3424 8.97591C15.9739 8.68077 15.5268 8.50025 15.0567 8.45673C14.5866 8.41321 14.1141 8.5086 13.6977 8.73108C13.2812 8.95356 12.9393 9.29335 12.7141 9.70833L12.7127 9.70977ZM11.8099 16.4524C12.2028 16.6648 12.6289 16.7558 13.0434 16.7399C12.9452 17.3177 12.7762 17.8897 12.509 18.4183L9.30378 24.4619C9.10821 24.8235 8.777 25.0927 8.38299 25.2101C7.98899 25.3275 7.56447 25.2836 7.20284 25.0881C6.8412 24.8925 6.57206 24.5613 6.45463 24.1673C6.3372 23.7733 6.3811 23.3487 6.57667 22.9871L9.75011 17.0028C10.1791 16.3094 11.0833 16.0596 11.8099 16.4524ZM12.2187 15.6984C11.9401 15.5475 11.6346 15.4529 11.3195 15.4201C11.0044 15.3873 10.6859 15.4169 10.3822 15.5071C10.0785 15.5974 9.79561 15.7466 9.54961 15.9462C9.3036 16.1459 9.09933 16.392 8.94845 16.6706L6.59545 21.0198C5.99365 20.1816 5.63949 19.1912 5.57334 18.1614C5.50719 17.1317 5.73173 16.1041 6.22134 15.1958C6.84169 14.055 7.84429 13.1695 9.05291 12.6947C10.2615 12.22 11.5988 12.1865 12.8297 12.6001C13.0174 13.396 13.2197 14.6079 13.1431 15.8747C12.8242 15.9129 12.5012 15.8513 12.2187 15.6984ZM16.292 10.3294V10.3323C16.3324 10.4378 16.8409 11.8591 17.0373 13.8106C17.2338 15.7634 17.1168 18.2306 15.9222 20.4406L15.902 20.4781L15.8818 20.5142C15.3822 21.4013 14.6468 22.1327 13.757 22.6273C12.8672 23.1219 11.8578 23.3605 10.8407 23.3164L13.1951 18.9672C14.0632 17.3596 14.1094 15.4717 13.9433 13.9897C13.8462 13.1044 13.6574 12.2316 13.38 11.3853C13.3103 11.1943 13.279 10.9915 13.2878 10.7883C13.2966 10.5852 13.3454 10.3858 13.4314 10.2016C13.5174 10.0174 13.6389 9.85191 13.789 9.71472C13.9391 9.57754 14.1147 9.4713 14.3059 9.40211C14.6923 9.26209 15.1184 9.2811 15.4908 9.45496C15.8631 9.62882 16.1513 9.94333 16.292 10.3294ZM20.2368 4.01289V4.01577L19.1318 6.16366C18.7465 5.81239 18.3196 5.50969 17.8607 5.26233C17.4007 5.01251 16.9117 4.8204 16.4047 4.69033L17.5111 2.53811C17.7067 2.17666 18.0378 1.90771 18.4317 1.79042C18.8256 1.67312 19.2499 1.7171 19.6113 1.91266C19.9728 2.10823 20.2417 2.43937 20.359 2.83324C20.4763 3.22711 20.4323 3.65144 20.2368 4.01289Z" fill="#0066FF"/>
<path d="M12.7124 9.70978C12.3802 10.3222 12.3441 11.017 12.5507 11.628C11.5087 11.3793 10.4209 11.3967 9.38733 11.6786C9.2057 10.4962 9.41571 9.28689 9.98534 8.235C10.6818 6.9521 11.8587 5.99779 13.2578 5.58133C14.6569 5.16487 16.1641 5.32027 17.4488 6.01345C18.7329 6.70878 19.6888 7.88488 20.1072 9.28392C20.5255 10.683 20.3721 12.1908 19.6804 13.4769C19.2698 14.2413 18.6825 14.8965 17.9673 15.3879C17.9702 13.5976 17.6874 11.8183 17.1296 10.1171C16.9844 9.66785 16.7106 9.27106 16.3421 8.97592C15.9736 8.68077 15.5266 8.50025 15.0565 8.45673C14.5864 8.41321 14.1138 8.5086 13.6974 8.73108C13.281 8.95357 12.939 9.29335 12.7139 9.70833L12.7124 9.70978ZM12.7124 9.70978L12.8381 9.77767M9.30356 24.4619L12.5102 18.4183C12.776 17.8897 12.945 17.3177 13.0447 16.7399C12.6145 16.7562 12.1879 16.6564 11.8097 16.451C11.4604 16.2638 11.0529 16.2168 10.6702 16.3196C10.2875 16.4224 9.95837 16.6672 9.74989 17.0042L6.57645 22.9871C6.38107 23.3487 6.33736 23.7732 6.45492 24.1671C6.57248 24.5609 6.8417 24.892 7.20333 25.0873C7.56497 25.2827 7.98941 25.3264 8.38328 25.2089C8.77715 25.0913 9.10818 24.8221 9.30356 24.4604V24.4619ZM15.8816 20.5142L15.9018 20.4781L15.922 20.4406C17.1166 18.2306 17.2336 15.7634 17.0371 13.8106C16.9236 12.6263 16.6735 11.4591 16.2918 10.3323V10.3294C16.1511 9.94333 15.8629 9.62883 15.4905 9.45497C15.1182 9.28111 14.692 9.2621 14.3057 9.40211C14.1146 9.47145 13.9391 9.57778 13.7892 9.71504C13.6393 9.85229 13.518 10.0178 13.4321 10.202C13.3462 10.3862 13.2975 10.5855 13.2888 10.7886C13.2801 10.9916 13.3115 11.1944 13.3812 11.3853C13.4101 11.4662 13.7799 12.5438 13.9431 13.9897C14.1092 15.4702 14.063 17.3596 13.1949 18.9658L10.8404 23.3164C11.8575 23.3605 12.867 23.1219 13.7568 22.6273C14.6466 22.1327 15.382 21.4013 15.8816 20.5142ZM12.2199 15.6984C11.9413 15.5475 11.6358 15.453 11.3207 15.4201C11.0056 15.3873 10.6871 15.4169 10.3834 15.5071C10.0798 15.5974 9.79683 15.7466 9.55083 15.9462C9.30482 16.1459 9.10055 16.392 8.94967 16.6706L6.59667 21.0198C5.99487 20.1816 5.64071 19.1912 5.57456 18.1614C5.50841 17.1317 5.73295 16.1041 6.22256 15.1958C6.84291 14.055 7.84551 13.1695 9.05413 12.6948C10.2627 12.22 11.6 12.1865 12.8309 12.6001C13.0187 13.396 13.2209 14.6079 13.1443 15.8747C12.8254 15.9129 12.5024 15.8513 12.2199 15.6984ZM20.238 4.01289V4.01578L19.133 6.16367C18.7477 5.81239 18.3208 5.50969 17.8619 5.26233C17.4019 5.01252 16.9129 4.8204 16.4059 4.69033L17.5123 2.53811C17.6092 2.35914 17.7403 2.201 17.8983 2.07271C18.0562 1.94442 18.2379 1.8485 18.4329 1.79042C18.6279 1.73234 18.8325 1.71325 19.0349 1.73422C19.2373 1.7552 19.4336 1.81583 19.6126 1.91267C19.7915 2.0095 19.9497 2.14064 20.078 2.29859C20.2063 2.45655 20.3022 2.63822 20.3603 2.83325C20.4183 3.02827 20.4374 3.23282 20.4164 3.43523C20.3955 3.63763 20.3348 3.83392 20.238 4.01289Z" stroke="white" stroke-width="0.2"/>
</svg>
