<svg width="14" height="14" viewBox="0 0 14 14" fill="none" xmlns="http://www.w3.org/2000/svg">
<path d="M10.5 12.8334C10.0139 12.8334 9.60069 12.6632 9.26042 12.3229C8.92014 11.9827 8.75 11.5695 8.75 11.0834C8.75 11.0153 8.75486 10.9447 8.76458 10.8716C8.7743 10.7985 8.78889 10.733 8.80833 10.675L4.69583 8.28335C4.53056 8.42919 4.34583 8.54352 4.14167 8.62635C3.9375 8.70919 3.72361 8.75041 3.5 8.75002C3.01389 8.75002 2.60069 8.57988 2.26042 8.2396C1.92014 7.89933 1.75 7.48613 1.75 7.00002C1.75 6.51391 1.92014 6.10072 2.26042 5.76044C2.60069 5.42016 3.01389 5.25002 3.5 5.25002C3.72361 5.25002 3.9375 5.29144 4.14167 5.37427C4.34583 5.4571 4.53056 5.57124 4.69583 5.71669L8.80833 3.32502C8.78889 3.26669 8.7743 3.20116 8.76458 3.12844C8.75486 3.05571 8.75 2.98513 8.75 2.91669C8.75 2.43058 8.92014 2.01738 9.26042 1.6771C9.60069 1.33683 10.0139 1.16669 10.5 1.16669C10.9861 1.16669 11.3993 1.33683 11.7396 1.6771C12.0799 2.01738 12.25 2.43058 12.25 2.91669C12.25 3.4028 12.0799 3.81599 11.7396 4.15627C11.3993 4.49655 10.9861 4.66669 10.5 4.66669C10.2764 4.66669 10.0625 4.62547 9.85833 4.54302C9.65417 4.46058 9.46944 4.34624 9.30417 4.20002L5.19167 6.59169C5.21111 6.65002 5.22569 6.71574 5.23542 6.78885C5.24514 6.86196 5.25 6.93235 5.25 7.00002C5.25 7.06769 5.24514 7.13827 5.23542 7.21177C5.22569 7.28527 5.21111 7.3508 5.19167 7.40835L9.30417 9.80002C9.46944 9.65419 9.65417 9.54005 9.85833 9.4576C10.0625 9.37516 10.2764 9.33374 10.5 9.33335C10.9861 9.33335 11.3993 9.50349 11.7396 9.84377C12.0799 10.184 12.25 10.5972 12.25 11.0834C12.25 11.5695 12.0799 11.9827 11.7396 12.3229C11.3993 12.6632 10.9861 12.8334 10.5 12.8334Z" fill="#0066FF"/>
</svg>
